# xmcd
#
# Track frame offsets:
#	150
#	17163
#	35452
#	54747
#	69853
#	85272
#	99984
#	118199
#	132818
#	146895
#	167312
#	187649
#	201025
#	217428
#	234198
#	248798
#	266506
#	285928
#	301974
#	317144
#
# Disc length: 4412 seconds
#
# Revision: 1
# Processed by: cddbd v1.5.2PL0 Copyright (c) Steve Scherf et al.
# Submitted via: EasyCDDAExtractor 15.2.5.1
#
DISCID=13113a14
DTITLE=Various Artist - Hit Country #1s [CD 1)
DYEAR=2011
DGENRE=Country
TTITLE0=Hell Yeah (single edit) - McAlister Kemp
TTITLE1=Last Name - Carrie Underwood
TTITLE2=It's Getting Better All The Time - Brooks and Dunn
TTITLE3=Metropolis - Steve Forde
TTITLE4=How Do You Like Me Now! - Toby Keith
TTITLE5=Single White Female - Chely Wright
TTITLE6=Way Out West - James Blundell and James Reyne
TTITLE7=Big Big Love - Troy Cassar-Daley
TTITLE8=Tequila Makes Her Clothes Fall Off - Joe Nichols
TTITLE9=Remember When - Alan Jackson
TTITLE10=When I Said I Do - Clint Black and Lisa Hartman Black
TTITLE11=Rip Rip Woodchip - John Williamson
TTITLE12=A Different Land - Markus Meier
TTITLE13=Good Friends - Adam Brand
TTITLE14=Yeah She Does - Travis Collins
TTITLE15=Just Another Day In Paradise - Phil Vassar
TTITLE16=Best Of Intentions - Travis Tritt
TTITLE17=Nothing But The Radio - Gary Allan
TTITLE18=Favourite Boyfriend Of The Year - The McClymonts
TTITLE19=Hello Blue Sky - The Flood
EXTD=YEAR: 2011
EXTT0=
EXTT1=
EXTT2=
EXTT3=
EXTT4=
EXTT5=
EXTT6=
EXTT7=
EXTT8=
EXTT9=
EXTT10=
EXTT11=
EXTT12=
EXTT13=
EXTT14=
EXTT15=
EXTT16=
EXTT17=
EXTT18=
EXTT19=
PLAYORDER=
